<svg xmlns="http://www.w3.org/2000/svg" xmlns:xlink="http://www.w3.org/1999/xlink" width="190" height="40" viewBox="0 0 190 40">
  <defs>
    <clipPath id="clip-Website_Logo_Header-190x40_White_Text">
      <rect width="190" height="40"/>
    </clipPath>
  </defs>
  <g id="Website_Logo_Header-190x40_White_Text" data-name="Website Logo Header-190x40 – White Text" clip-path="url(#clip-Website_Logo_Header-190x40_White_Text)">
    <g id="Group_49" data-name="Group 49" transform="translate(17916 -7780.339)">
      <path id="Path_145" data-name="Path 145" d="M3.129.681C6.123.344,15.352-.559,20.1.5c4.935,1.316,7.08,2.88,6.137,7.684S13.147,23.08,10.484,25.091a1.545,1.545,0,0,1-1.028.159,1.327,1.327,0,0,1-.865-2.032c.694-1,5.207-6.24,6.794-8.692s3.993-7.072,1.345-8.838S9.773,3.556,1.481,4.014c-2-.079-2.025-2.67.226-3.1A11.956,11.956,0,0,1,3.129.681Z" transform="translate(-17757.789 7789.497) rotate(-3)" fill="#ea6a3a"/>
      <ellipse id="Ellipse_31" data-name="Ellipse 31" cx="3.207" cy="3.469" rx="3.207" ry="3.469" transform="translate(-17731.377 7781.339) rotate(45)" fill="#ea6a3a"/>
      <path id="Path_151" data-name="Path 151" d="M22.9-107.209c4.094,0,3.571,4.326-.523,4.326H16.336l.523-4.326Zm8.856,15.534L25.367-99.05a7.835,7.835,0,0,0,5.807-6.446c.377-3.281-1.829-6.5-7-6.5H12.1L9.6-91.675h5.372l.9-7.375h3.194l5.285,7.375Zm15.07-7.114L46.5-96.2H40.378c-2.207,0-1.887-2.584.319-2.584Zm-2.613,7.114h6.882l1.394-11.469a4.468,4.468,0,0,0-4.53-5.168H37.417l-.552,4.443H46.5a.8.8,0,0,1,.813.929l-.087.668H40.349c-8.1,0-9.437,10.6-1.336,10.6Zm24.506,0,2.555-4.53H61.778a2.247,2.247,0,0,1-2.294-2.584l.29-2.41a3.052,3.052,0,0,1,2.962-2.584h8.972l.552-4.53H62.5a8.072,8.072,0,0,0-7.84,6.969l-.348,2.729a6.02,6.02,0,0,0,6.1,6.94Zm10.1-9.814.029-.232a2.428,2.428,0,0,1,2.352-2.062h4.123c1.974,0,1.684,2.294-.29,2.294Zm2.671-6.823a8.1,8.1,0,0,0-7.84,6.969l-.348,2.933A5.823,5.823,0,0,0,79.2-91.675h8.043L89.8-96.2H80.274a1.769,1.769,0,0,1-1.829-1.945h7.462c7.056,0,7.782-10.163,1.074-10.163Zm31.214,0H94.879L92.846-91.675h5.139l1.51-12.108h4.268a1.39,1.39,0,0,1,1.423,1.6L103.88-91.675h5.168l1.365-11.034a6.633,6.633,0,0,0,0-1.074h4.152a1.384,1.384,0,0,1,1.394,1.6l-1.278,10.511h5.168l1.365-11.034a4.857,4.857,0,0,0-4.936-5.6Zm23.374,9.524-.319,2.584h-6.127c-2.207,0-1.887-2.584.319-2.584Zm-2.613,7.114h6.882l1.394-11.469a4.468,4.468,0,0,0-4.53-5.168h-10.54l-.552,4.443h9.64a.8.8,0,0,1,.813.929l-.087.668h-6.882c-8.1,0-9.437,10.6-1.336,10.6Zm13.705-16.609h-2.555l-.523,4.181h2.265l-.842,6.852a4.841,4.841,0,0,0,4.907,5.575h4.123L157.1-96.2h-4.762a1.537,1.537,0,0,1-1.568-1.771l.755-6.127H157.1l.523-4.181h-5.6l.459-3.717h-2.7Zm17.189,6.794.029-.232a2.428,2.428,0,0,1,2.352-2.062h4.123c1.974,0,1.684,2.294-.29,2.294Zm2.671-6.823a8.1,8.1,0,0,0-7.84,6.969l-.348,2.933a5.823,5.823,0,0,0,5.894,6.736h8.043l2.555-4.53h-9.524a1.769,1.769,0,0,1-1.829-1.945h7.462c7.056,0,7.782-10.163,1.074-10.163Z" transform="translate(-17923.6 7903.871)" fill="#fdfdfd"/>
    </g>
  </g>
</svg>
